<?xml version="1.0" encoding="iso-8859-1"?>
<!-- Generator: Adobe Illustrator 19.0.0, SVG Export Plug-In . SVG Version: 6.00 Build 0)  -->
<svg version="1.1" id="Capa_1" xmlns="http://www.w3.org/2000/svg" xmlns:xlink="http://www.w3.org/1999/xlink" x="0px" y="0px"
	 viewBox="0 0 512 512" style="enable-background:new 0 0 512 512;" xml:space="preserve" width="75px" height="75px">
<circle style="fill:#FF7058;" cx="256" cy="78.4" r="57.6"/>
<polygon style="fill:#FFFFFF;" points="298.667,68.8 266.667,68.8 266.667,35.733 245.333,35.733 245.333,68.8 213.333,68.8 
	213.333,89.067 245.333,89.067 245.333,121.067 266.667,121.067 266.667,89.067 298.667,89.067 "/>
<g>
	<path style="fill:#FFD15C;" d="M23.467,100.8C10.667,100.8,0,111.467,0,124.267v365.867h45.867V124.267
		C45.867,111.467,36.267,100.8,23.467,100.8z"/>
	<path style="fill:#FFD15C;" d="M488.533,190.4c-12.8,0-23.467,10.667-23.467,23.467V491.2H512V212.8
		C512,200,501.333,190.4,488.533,190.4z"/>
</g>
<rect x="45.867" y="264" style="fill:#F2F2F2;" width="419.2" height="88.533"/>
<rect x="45.867" y="328" style="fill:#CDD6E0;" width="419.2" height="24.533"/>
<path style="fill:#FF7058;" d="M466.133,430.4h-224c-11.733,0-21.333-9.6-21.333-21.333V244.8c0-11.733,9.6-21.333,21.333-21.333
	h224V430.4z"/>
<rect x="405.333" y="223.467" style="fill:#F2F2F2;" width="19.2" height="206.933"/>
<path style="fill:#CDD6E0;" d="M125.867,253.333c-2.133-35.2-33.067-66.133-68.267-68.267l0,0c-6.4,0-11.733,4.267-10.667,10.667
	l0,0C49.067,230.933,80,261.867,115.2,264C121.6,265.067,125.867,259.733,125.867,253.333z"/>
<g>
</g>
<g>
</g>
<g>
</g>
<g>
</g>
<g>
</g>
<g>
</g>
<g>
</g>
<g>
</g>
<g>
</g>
<g>
</g>
<g>
</g>
<g>
</g>
<g>
</g>
<g>
</g>
<g>
</g>
</svg>
