<?xml version="1.0" encoding="utf-8"?>
<!-- Generator: Adobe Illustrator 20.0.0, SVG Export Plug-In . SVG Version: 6.00 Build 0)  -->
<svg version="1.1" id="Режим_изоляции"
	 xmlns="http://www.w3.org/2000/svg" xmlns:xlink="http://www.w3.org/1999/xlink" x="0px" y="0px" viewBox="0 0 219 1109.8"
	 style="enable-background:new 0 0 219 1109.8;" xml:space="preserve"  width="500px" height="500px">
<style type="text/css">
	.st0{fill:#E0E0E0;}
	.st1{fill:#807CFD;}
	.st2{fill:#FB736B;}
	.st3{fill:#F5F5F5;}
	.st4{fill:#FBB342;}
	.st5{fill:#6ADF63;}
</style>
<path class="st0" d="M0,708.6c0,0,8,25.7,55.2,51.2c47.2,25.5,207.9,101.4,152.7,148.6c0,0-24.4-31.5-78.9-57.7
	C74.3,824.4,0,782.2,0,759.7C0,737.2,0,708.6,0,708.6z"/>
<path class="st0" d="M0,0c0,0,8,25.7,55.2,51.2C102.3,76.6,263,152.6,207.9,199.8c0,0-24.4-31.5-78.9-57.7C74.3,115.8,0,73.7,0,51.2
	C0,28.7,0,0,0,0z"/>
<path class="st0" d="M0,548.1c0,0,8,26.7,55.2,53.1c47.2,26.5,208,105.4,152.8,154.4c0,0-24.4-32.8-79-60
	c-54.6-27.2-129-71-129-94.4C0,577.8,0,548.1,0,548.1z"/>
<path class="st1" d="M108.1,600.9c0,4.9-4,8.9-8.9,8.9H30.7c-4.9,0-8.9-4-8.9-8.9l0,0c0-4.9,4-8.9,8.9-8.9h68.5
	C104.1,592.1,108.1,596,108.1,600.9L108.1,600.9z"/>
<path class="st1" d="M194.4,600.9c0,4.9-4,8.9-8.9,8.9H117c-4.9,0-8.9-4-8.9-8.9l0,0c0-4.9,4-8.9,8.9-8.9h68.5
	C190.4,592.1,194.4,596,194.4,600.9L194.4,600.9z"/>
<path class="st2" d="M107.5,522.6c0,4.6-3.3,8.2-7.5,8.2H42.6c-4.1,0-7.5-3.7-7.5-8.2l0,0c0-4.6,3.3-8.2,7.5-8.2H100
	C104.1,514.4,107.5,518.1,107.5,522.6L107.5,522.6z"/>
<path class="st2" d="M179.8,522.6c0,4.6-3.3,8.2-7.5,8.2h-57.4c-4.1,0-7.5-3.7-7.5-8.2l0,0c0-4.6,3.3-8.2,7.5-8.2h57.4
	C176.5,514.4,179.8,518.1,179.8,522.6L179.8,522.6z"/>
<path class="st3" d="M109.7,555.8c0,4.9-4.4,8.9-9.8,8.9H24.5c-5.4,0-9.8-4-9.8-8.9l0,0c0-4.9,4.4-8.9,9.8-8.9h75.4
	C105.3,547,109.7,550.9,109.7,555.8L109.7,555.8z"/>
<path class="st3" d="M204.7,555.8c0,4.9-4.4,8.9-9.8,8.9h-75.4c-5.4,0-9.8-4-9.8-8.9l0,0c0-4.9,4.4-8.9,9.8-8.9h75.4
	C200.3,547,204.7,550.9,204.7,555.8L204.7,555.8z"/>
<path class="st0" d="M0,354.4c0,0,8,25.7,55.2,51.2C102.3,431,263,507,207.9,554.1c0,0-24.4-31.5-78.9-57.7
	C74.3,470.2,0,428,0,405.6C0,383.1,0,354.4,0,354.4z"/>
<path class="st0" d="M55.2,246.9C8,220.4,0,193.7,0,193.7s0,29.8,0,53.1c0,23.4,74.4,67.2,129,94.4c39.4,19.6,63,42.1,73.2,53.2
	c10.7-12,16.8-20.5,16.8-20.6C211.5,326.8,94.3,268.8,55.2,246.9z"/>
<path class="st3" d="M219,383.1v-9.2c0,0,0,0,0,0c0,0-6.1,8.6-16.8,20.6c3.9,4.3,5.8,6.8,5.8,6.8C214.5,395.6,217.9,389.5,219,383.1
	z"/>
<path class="st1" d="M108.1,246.6c0,4.9-4,8.9-8.9,8.9H30.7c-4.9,0-8.9-4-8.9-8.9l0,0c0-4.9,4-8.9,8.9-8.9h68.5
	C104.1,237.7,108.1,241.6,108.1,246.6L108.1,246.6z"/>
<path class="st1" d="M194.4,246.6c0,4.9-4,8.9-8.9,8.9H117c-4.9,0-8.9-4-8.9-8.9l0,0c0-4.9,4-8.9,8.9-8.9h68.5
	C190.4,237.7,194.4,241.6,194.4,246.6L194.4,246.6z"/>
<path class="st2" d="M107.5,168.2c0,4.6-3.3,8.2-7.5,8.2H42.6c-4.1,0-7.5-3.7-7.5-8.2l0,0c0-4.6,3.3-8.2,7.5-8.2H100
	C104.1,160,107.5,163.7,107.5,168.2L107.5,168.2z"/>
<path class="st2" d="M179.8,168.2c0,4.6-3.3,8.2-7.5,8.2h-57.4c-4.1,0-7.5-3.7-7.5-8.2l0,0c0-4.6,3.3-8.2,7.5-8.2h57.4
	C176.5,160,179.8,163.7,179.8,168.2L179.8,168.2z"/>
<path class="st4" d="M109.7,201.5c0,4.9-4.4,8.9-9.8,8.9H24.5c-5.4,0-9.8-4-9.8-8.9l0,0c0-4.9,4.4-8.9,9.8-8.9h75.4
	C105.3,192.6,109.7,196.5,109.7,201.5L109.7,201.5z"/>
<path class="st4" d="M204.7,201.5c0,4.9-4.4,8.9-9.8,8.9h-75.4c-5.4,0-9.8-4-9.8-8.9l0,0c0-4.9,4.4-8.9,9.8-8.9h75.4
	C200.3,192.6,204.7,196.5,204.7,201.5L204.7,201.5z"/>
<path class="st3" d="M115.6,58.7c0,4.9-4.4,8.9-9.8,8.9H30.4c-5.4,0-9.8-4-9.8-8.9l0,0c0-4.9,4.4-8.9,9.8-8.9h75.4
	C111.2,49.8,115.6,53.8,115.6,58.7L115.6,58.7z"/>
<path class="st3" d="M210.6,58.7c0,4.9-4.4,8.9-9.8,8.9h-75.4c-5.4,0-9.8-4-9.8-8.9l0,0c0-4.9,4.4-8.9,9.8-8.9h75.4
	C206.2,49.8,210.6,53.8,210.6,58.7L210.6,58.7z"/>
<path class="st5" d="M176.2,99.9c0,4.9-4.4,8.9-9.8,8.9H91c-5.4,0-9.8-4-9.8-8.9l0,0c0-4.9,4.4-8.9,9.8-8.9h75.4
	C171.8,91,176.2,95,176.2,99.9L176.2,99.9z"/>
<path class="st3" d="M0,245.4c0,0,18.4-41.1,75.9-73.7C133.5,139.1,215.8,101,219,65.3V24c0,0-37.2,47.9-90.1,74.7
	C75.9,125.5,0,170.3,0,194.3C0,218.3,0,245.4,0,245.4z"/>
<path class="st3" d="M97.6,337c0,4.6-3.3,8.2-7.5,8.2H32.7c-4.1,0-7.5-3.7-7.5-8.2l0,0c0-4.6,3.3-8.2,7.5-8.2h57.4
	C94.3,328.8,97.6,332.5,97.6,337L97.6,337z"/>
<path class="st3" d="M170,337c0,4.6-3.3,8.2-7.5,8.2h-57.4c-4.1,0-7.5-3.7-7.5-8.2l0,0c0-4.6,3.3-8.2,7.5-8.2h57.4
	C166.7,328.8,170,332.5,170,337L170,337z"/>
<path class="st4" d="M115.6,415.4c0,4.9-4,8.9-8.9,8.9H38.2c-4.9,0-8.9-4-8.9-8.9l0,0c0-4.9,4-8.9,8.9-8.9h68.5
	C111.6,406.5,115.6,410.5,115.6,415.4L115.6,415.4z"/>
<path class="st4" d="M201.9,415.4c0,4.9-4,8.9-8.9,8.9h-68.5c-4.9,0-8.9-4-8.9-8.9l0,0c0-4.9,4-8.9,8.9-8.9H193
	C197.9,406.5,201.9,410.5,201.9,415.4L201.9,415.4z"/>
<path class="st5" d="M107.5,375.6c0,4.9-4.4,8.9-9.8,8.9H22.3c-5.4,0-9.8-4-9.8-8.9l0,0c0-4.9,4.4-8.9,9.8-8.9h75.4
	C103.1,366.7,107.5,370.7,107.5,375.6L107.5,375.6z"/>
<path class="st5" d="M202.5,375.6c0,4.9-4.4,8.9-9.8,8.9h-75.4c-5.4,0-9.8-4-9.8-8.9l0,0c0-4.9,4.4-8.9,9.8-8.9h75.4
	C198.1,366.7,202.5,370.7,202.5,375.6L202.5,375.6z"/>
<path class="st3" d="M208,401.3c0,0-1.9-2.6-5.8-6.8c-15.8,17.7-41.8,42.7-73.3,58.7C75.9,479.9,0,524.7,0,548.7c0,24,0,51.2,0,51.2
	s18.4-41.1,75.9-73.7c57.6-32.6,139.9-70.7,143.1-106.4v-36.6C217.9,389.5,214.5,395.6,208,401.3z"/>
<path class="st3" d="M0,406.6c0,0,18.4-41.1,75.9-73.7c57.6-32.6,139.9-70.7,143.1-106.4v-52.4c0,0-37.2,59-90.1,85.8
	C75.9,286.7,0,331.4,0,355.4C0,379.4,0,406.6,0,406.6z"/>
<path class="st0" d="M55.2,955.5C8,929,0,902.3,0,902.3s0,29.8,0,53.1c0,23.4,74.4,67.2,129,94.4c39.4,19.6,63,42.1,73.2,53.2
	c10.7-12,16.8-20.5,16.8-20.6C211.5,1035.3,94.3,977.4,55.2,955.5z"/>
<polygon class="st3" points="219,1082.4 219,1082.4 219,1082.4 "/>
<path class="st5" d="M108.1,955.1c0,4.9-4,8.9-8.9,8.9H30.7c-4.9,0-8.9-4-8.9-8.9l0,0c0-4.9,4-8.9,8.9-8.9h68.5
	C104.1,946.2,108.1,950.2,108.1,955.1L108.1,955.1z"/>
<path class="st5" d="M194.4,955.1c0,4.9-4,8.9-8.9,8.9H117c-4.9,0-8.9-4-8.9-8.9l0,0c0-4.9,4-8.9,8.9-8.9h68.5
	C190.4,946.2,194.4,950.2,194.4,955.1L194.4,955.1z"/>
<path class="st2" d="M107.5,876.8c0,4.6-3.3,8.2-7.5,8.2H42.6c-4.1,0-7.5-3.7-7.5-8.2l0,0c0-4.6,3.3-8.2,7.5-8.2H100
	C104.1,868.5,107.5,872.2,107.5,876.8L107.5,876.8z"/>
<path class="st2" d="M179.8,876.8c0,4.6-3.3,8.2-7.5,8.2h-57.4c-4.1,0-7.5-3.7-7.5-8.2l0,0c0-4.6,3.3-8.2,7.5-8.2h57.4
	C176.5,868.5,179.8,872.2,179.8,876.8L179.8,876.8z"/>
<path class="st4" d="M109.7,910c0,4.9-4.4,8.9-9.8,8.9H24.5c-5.4,0-9.8-4-9.8-8.9l0,0c0-4.9,4.4-8.9,9.8-8.9h75.4
	C105.3,901.1,109.7,905.1,109.7,910L109.7,910z"/>
<path class="st4" d="M204.7,910c0,4.9-4.4,8.9-9.8,8.9h-75.4c-5.4,0-9.8-4-9.8-8.9l0,0c0-4.9,4.4-8.9,9.8-8.9h75.4
	C200.3,901.1,204.7,905.1,204.7,910L204.7,910z"/>
<path class="st5" d="M108.1,766.2c0,4.9-4,8.9-8.9,8.9H30.7c-4.9,0-8.9-4-8.9-8.9l0,0c0-4.9,4-8.9,8.9-8.9h68.5
	C104.1,757.3,108.1,761.3,108.1,766.2L108.1,766.2z"/>
<path class="st5" d="M194.4,766.2c0,4.9-4,8.9-8.9,8.9H117c-4.9,0-8.9-4-8.9-8.9l0,0c0-4.9,4-8.9,8.9-8.9h68.5
	C190.4,757.3,194.4,761.3,194.4,766.2L194.4,766.2z"/>
<path class="st2" d="M107.5,695.7c0,4.6-3.3,8.2-7.5,8.2H42.6c-4.1,0-7.5-3.7-7.5-8.2l0,0c0-4.6,3.3-8.2,7.5-8.2H100
	C104.1,687.4,107.5,691.1,107.5,695.7L107.5,695.7z"/>
<path class="st2" d="M179.8,695.7c0,4.6-3.3,8.2-7.5,8.2h-57.4c-4.1,0-7.5-3.7-7.5-8.2l0,0c0-4.6,3.3-8.2,7.5-8.2h57.4
	C176.5,687.4,179.8,691.1,179.8,695.7L179.8,695.7z"/>
<path class="st4" d="M109.7,728.9c0,4.9-4.4,8.9-9.8,8.9H24.5c-5.4,0-9.8-4-9.8-8.9l0,0c0-4.9,4.4-8.9,9.8-8.9h75.4
	C105.3,720,109.7,724,109.7,728.9L109.7,728.9z"/>
<path class="st4" d="M204.7,728.9c0,4.9-4.4,8.9-9.8,8.9h-75.4c-5.4,0-9.8-4-9.8-8.9l0,0c0-4.9,4.4-8.9,9.8-8.9h75.4
	C200.3,720,204.7,724,204.7,728.9L204.7,728.9z"/>
<path class="st3" d="M0,954c0,0,18.4-41.1,75.9-73.7c57.6-32.6,139.9-70.7,143.1-106.4v-41.3c0,0-37.2,47.9-90.1,74.7
	C75.9,834.1,0,878.9,0,902.8C0,926.8,0,954,0,954z"/>
<path class="st3" d="M97.6,1045.6c0,4.6-3.3,8.2-7.5,8.2H32.7c-4.1,0-7.5-3.7-7.5-8.2l0,0c0-4.6,3.3-8.2,7.5-8.2h57.4
	C94.3,1037.4,97.6,1041.1,97.6,1045.6L97.6,1045.6z"/>
<path class="st3" d="M170,1045.6c0,4.6-3.3,8.2-7.5,8.2h-57.4c-4.1,0-7.5-3.7-7.5-8.2l0,0c0-4.6,3.3-8.2,7.5-8.2h57.4
	C166.7,1037.4,170,1041.1,170,1045.6L170,1045.6z"/>
<path class="st5" d="M107.5,1084.2c0,4.9-4.4,8.9-9.8,8.9H22.3c-5.4,0-9.8-4-9.8-8.9l0,0c0-4.9,4.4-8.9,9.8-8.9h75.4
	C103.1,1075.3,107.5,1079.3,107.5,1084.2L107.5,1084.2z"/>
<path class="st5" d="M202.5,1084.2c0,4.9-4.4,8.9-9.8,8.9h-75.4c-5.4,0-9.8-4-9.8-8.9l0,0c0-4.9,4.4-8.9,9.8-8.9h75.4
	C198.1,1075.3,202.5,1079.3,202.5,1084.2L202.5,1084.2z"/>
<path class="st3" d="M0,1115.2c0,0,18.4-41.1,75.9-73.7c57.6-32.6,139.9-70.7,143.1-106.4v-52.4c0,0-37.2,59-90.1,85.8
	C75.9,995.3,0,1040,0,1064C0,1088,0,1115.2,0,1115.2z"/>
<path class="st3" d="M0,760.9c0,0,18.4-41.1,75.9-73.7c57.6-32.6,139.9-70.7,143.1-106.4v-47.4c0,0-37.2,54.1-90.1,80.9
	C75.9,641,0,685.8,0,709.7C0,733.7,0,760.9,0,760.9z"/>
</svg>
