<?xml version="1.0" encoding="utf-8"?>
<!-- Generator: Adobe Illustrator 18.1.1, SVG Export Plug-In . SVG Version: 6.00 Build 0)  -->
<svg version="1.1" id="Слой_1" xmlns="http://www.w3.org/2000/svg" xmlns:xlink="http://www.w3.org/1999/xlink" x="0px" y="0px"
	 viewBox="0 0 1000 1000" enable-background="new 0 0 1000 1000" xml:space="preserve">
<g>
	<path fill-rule="evenodd" clip-rule="evenodd" fill="#0971B2" d="M141.6,191.5C258,89.6,397,108.6,520.3,194
		c60.3,53.4,80.2,148.9,71.7,275.8c-8.3,123.9-27,272.2-70.3,447c-33.8-43.7-83.5-95.9-218.3-206.8
		c-93.6-77-192.2-132.2-221.6-217.6C40.7,372.5,62.8,260.5,141.6,191.5z"/>
	<path fill-rule="evenodd" clip-rule="evenodd" fill="#C62829" d="M520.3,194c60.4-45.8,124.3-66.3,191-65.9
		c95.2,7.6,159.6,45.2,195.9,110.1c71.5,140.7,28.6,280.5-91.9,395.3c-100,95.3-209.7,176.8-293.6,283.4
		c31-138.6,56.7-276.6,67.8-413.1C594.9,378.8,594.1,258.5,520.3,194z"/>
	<path fill-rule="evenodd" clip-rule="evenodd" fill="#FFFFFF" d="M19.2,582l329.6-3.6c17.1-12.7,45.1-68.5,63-45.7l36.4,46.6
		c14.3,18.3,12.6-243.7,62.3-311.4c27.4-26,43,233.6,56.5,466.1c15.6-59.8,23.9-189.3,59.4-174.1l12.5,5.4l16.7-75.6
		c3.6-16.3,27-13.1,29-4.2c16.1,38.2,19.1,78.8,28.7,118.2c14.7-19.6,40.3-71.1,58.6-54.9l33.1,29.6c60.9,4.4,118.2,3.6,176,3.3
		c9.2,0,8.6,24.2-0.6,24.2c-62.4,0-124.9,0-187.3,0l-28.7-29.9c0,0-27.3,53.9-47.8,71.7c-24.7-4.7-35.7-46-42.1-104.8
		c-7.5,20.2-12.3,63.4-22.4,60.6c-10-2.8-19.9-5.6-29.9-8.4c-15.9,92.3-38.9,223.9-57.3,203c-41.9-94.4-34.2-296.2-51.4-444.3
		c-19.9,91.6-21.9,270.3-59.7,274.7c-17.5,7.9-37.4-43.8-56.1-65.7c-11.9,13.9-17.5,41.7-35.8,41.8l-342.6,1.9
		C15.1,602.5,10.9,592.8,19.2,582z"/>
	<path fill-rule="evenodd" clip-rule="evenodd" fill="#0971B2" d="M19.9,582.1l122.4-1.3l27.8,25.1c-50,0.3-100,0.6-150,0.9
		C13.2,599.2,12.3,591.1,19.9,582.1z"/>
	<path fill-rule="evenodd" clip-rule="evenodd" fill="#C62829" d="M863.3,581.3l120.5,1c6.9,7.5,6.4,15.2-0.1,22.9l-141.5,0.8
		L863.3,581.3z"/>
</g>
</svg>
