<?xml version="1.0" encoding="UTF-8" standalone="no"?>
<svg
   xmlns:dc="http://purl.org/dc/elements/1.1/"
   xmlns:cc="http://creativecommons.org/ns#"
   xmlns:rdf="http://www.w3.org/1999/02/22-rdf-syntax-ns#"
   xmlns:svg="http://www.w3.org/2000/svg"
   xmlns="http://www.w3.org/2000/svg"
   width="2300"
   height="668"
   viewBox="0 0 2300 667.99999"
   id="svg3525"
   version="1.1">
  <defs
     id="defs3527">
    <clipPath
       clipPathUnits="userSpaceOnUse"
       id="clipPath3445">
      <path
         d="m 0,1000 2000,0 L 2000,0 0,0 0,1000 Z"
         id="path3447" />
    </clipPath>
  </defs>
  <metadata
     id="metadata3530">
    <rdf:RDF>
      <cc:Work
         rdf:about="">
        <dc:format>image/svg+xml</dc:format>
        <dc:type
           rdf:resource="http://purl.org/dc/dcmitype/StillImage" />
        <dc:title></dc:title>
      </cc:Work>
    </rdf:RDF>
  </metadata>
  <g
     id="layer1"
     transform="translate(0,-384.36227)">
    <g
       transform="matrix(0.8265539,0,0,-0.8265539,25.865384,1122.104)"
       id="g3441">
      <g
         id="g3443"
         clip-path="url(#clipPath3445)">
        <g
           id="g3449"
           transform="translate(131.0359,802.9832)">
          <path
             d="m 0,0 c 113.001,98.917 247.989,80.524 367.714,-2.472 58.575,-51.826 77.861,-144.562 69.6,-267.845 -8.063,-120.326 -26.201,-264.304 -68.25,-434.06 -32.784,42.479 -81.063,93.096 -211.927,200.767 -90.899,74.789 -186.666,128.326 -215.132,211.316 C -97.983,-175.714 -76.529,-66.991 0,0"
             style="fill:#0072b6;fill-opacity:1;fill-rule:evenodd;stroke:none"
             id="path3451" />
        </g>
        <g
           id="g3453"
           transform="translate(498.7503,800.5115)">
          <path
             d="M 0,0 C 58.644,44.447 120.669,64.387 185.494,64.02 277.935,56.629 340.446,20.118 375.71,-42.905 445.132,-179.532 403.432,-315.233 286.467,-426.69 189.336,-519.247 82.858,-598.327 1.349,-701.905 31.458,-567.33 56.425,-433.296 67.179,-300.766 72.426,-179.365 71.665,-62.561 0,0"
             style="fill:#e62324;fill-opacity:1;fill-rule:evenodd;stroke:none"
             id="path3455" />
        </g>
        <g
           id="g3457"
           transform="translate(12.2074,423.7703)">
          <path
             d="m 0,0 320.049,3.479 c 16.645,12.294 43.819,66.53 61.162,44.357 L 416.583,2.611 c 13.93,-17.809 6.539,250.985 60.533,302.333 26.575,25.272 41.784,-226.849 54.833,-452.537 15.177,58.088 23.253,183.809 57.706,169.045 l 12.176,-5.218 16.17,73.411 c 3.492,15.852 26.221,12.688 28.121,4.056 15.651,-37.108 18.553,-76.533 27.83,-114.8 14.226,19.016 39.152,69.085 56.877,53.28 L 763.015,3.479 C 822.177,-0.798 877.749,0 933.889,0.291 c 8.887,0.047 8.309,-23.483 -0.58,-23.483 l -181.89,0 -27.83,28.99 c -12.905,-26.6 -26.49,-52.296 -46.384,-69.576 -23.991,4.581 -34.659,44.63 -40.878,101.752 -7.247,-19.616 -11.988,-61.577 -21.74,-58.847 -9.664,2.706 -19.328,5.412 -28.99,8.117 -15.396,-89.621 -37.771,-217.378 -55.661,-197.131 -69.183,78.299 -33.242,287.58 -49.863,431.37 C 460.746,132.58 458.805,-40.929 422.093,-45.224 405.085,-52.94 385.759,-2.705 367.592,18.553 355.996,5.025 350.622,-21.932 332.804,-22.032 L 0.186,-23.921 C -3.957,-19.873 -8.036,-10.44 0,0"
             style="fill:#ffffff;fill-opacity:1;fill-rule:evenodd;stroke:none"
             id="path3459" />
        </g>
        <g
           id="g3461"
           transform="translate(12.8504,423.7544)">
          <path
             d="m 0,0 118.87,1.292 26.999,-24.386 C 97.308,-23.37 48.747,-23.645 0.186,-23.921 -6.44,-16.652 -7.377,-8.772 0,0"
             style="fill:#0072b6;fill-opacity:1;fill-rule:evenodd;stroke:none"
             id="path3463" />
        </g>
        <g
           id="g3465"
           transform="translate(831.8276,424.4991)">
          <path
             d="m 0,0 116.994,-0.933 c 6.658,-7.311 6.234,-14.727 -0.062,-22.231 L -20.423,-23.937 0,0 Z"
             style="fill:#e62324;fill-opacity:1;fill-rule:evenodd;stroke:none"
             id="path3467" />
        </g>
      </g>
    </g>
    <g
       id="text3567"
       style="font-style:normal;font-variant:normal;font-weight:normal;font-stretch:normal;font-size:40px;line-height:93.99999976%;font-family:Ubuntu;-inkscape-font-specification:'Ubuntu, Normal';text-align:start;letter-spacing:0px;word-spacing:0px;writing-mode:lr-tb;text-anchor:start;fill:#0072b6;fill-opacity:1;stroke:none;stroke-width:1px;stroke-linecap:butt;stroke-linejoin:miter;stroke-opacity:1">
      <path
         id="path4238"
         style="font-style:normal;font-variant:normal;font-weight:bold;font-stretch:normal;font-size:387.5px;line-height:93.99999976%;font-family:Calibri;-inkscape-font-specification:'Calibri Bold';text-align:center;writing-mode:lr-tb;text-anchor:middle;fill:#0072b6;fill-opacity:1"
         d="m 1525.2573,568.53448 q 0,30.46265 -7.5683,54.49219 -7.5684,24.02954 -22.5159,40.86914 -14.9475,16.65039 -37.085,25.54322 -21.9482,8.70361 -50.8972,8.70361 -28.5705,0 -49.9512,-7.37915 -21.1914,-7.56836 -35.382,-22.89429 -14.1907,-15.32593 -21.3806,-38.97705 -7.0008,-23.65112 -7.0008,-56.00586 0,-29.70581 7.5684,-53.35693 7.5683,-23.84033 22.5158,-40.49072 14.9476,-16.6504 36.8958,-25.54322 22.1375,-8.89282 51.2756,-8.89282 27.8138,0 49.0052,7.37915 21.3806,7.37915 35.5712,22.70508 14.3799,15.32593 21.5699,38.78784 7.3791,23.27271 7.3791,55.05981 z m -52.2217,2.64893 q 0,-19.29932 -3.0273,-35.00366 -3.0273,-15.89356 -10.4065,-27.05689 -7.1899,-11.35254 -19.2993,-17.40722 -12.1094,-6.2439 -30.2734,-6.2439 -18.3533,0 -30.6519,7.00073 -12.2986,6.81153 -19.8669,18.35327 -7.5684,11.54175 -10.785,27.05689 -3.0273,15.32593 -3.0273,32.54394 0,20.05616 3.0273,36.13892 3.0274,15.89356 10.2173,27.24609 7.19,11.35254 19.2993,17.40723 12.1094,5.86548 30.4627,5.86548 18.3533,0 30.6518,-6.81152 12.2986,-6.81153 19.867,-18.54248 7.5683,-11.73096 10.5957,-27.2461 3.2165,-15.70434 3.2165,-33.30078 z" />
      <path
         id="path4240"
         style="font-style:normal;font-variant:normal;font-weight:bold;font-stretch:normal;font-size:387.5px;line-height:93.99999976%;font-family:Calibri;-inkscape-font-specification:'Calibri Bold';text-align:center;writing-mode:lr-tb;text-anchor:middle;fill:#0072b6;fill-opacity:1"
         d="m 1861.1033,678.08649 q 0,7.94677 -3.7842,11.92016 -3.7842,3.78418 -10.5957,3.78418 l -265.0818,0 q -6.6223,0 -10.7849,-3.78418 -3.9734,-3.97339 -3.9734,-11.92016 l 0,-223.0774 q 0,-1.89209 1.1353,-3.21655 1.3244,-1.32446 4.1626,-2.0813 2.8381,-0.94604 7.5683,-1.32446 4.7302,-0.56763 11.5418,-0.56763 7.0007,0 11.5417,0.56763 4.7302,0.37842 7.5684,1.32446 2.8381,0.75684 3.9734,2.0813 1.3244,1.32446 1.3244,3.21655 l 0,198.29102 73.9807,0 0,-198.29102 q 0,-1.89209 1.1353,-3.21655 1.3244,-1.32446 3.9734,-2.0813 2.8381,-0.94604 7.5683,-1.32446 4.7303,-0.56763 11.5418,-0.56763 6.8115,0 11.3525,0.56763 4.7302,0.37842 7.5684,1.32446 2.8381,0.75684 3.9734,2.0813 1.3244,1.32446 1.3244,3.21655 l 0,198.29102 74.17,0 0,-198.29102 q 0,-1.89209 1.1352,-3.21655 1.3245,-1.32446 4.1626,-2.0813 2.8381,-0.94604 7.3792,-1.32446 4.7302,-0.56763 11.7309,-0.56763 6.8115,0 11.3526,0.56763 4.7302,0.37842 7.5683,1.32446 2.8381,0.75684 4.1626,2.0813 1.3245,1.32446 1.3245,3.21655 l 0,223.0774 z" />
    </g>
    <g
       id="text3579"
       style="font-style:normal;font-variant:normal;font-weight:normal;font-stretch:normal;font-size:275px;line-height:125%;font-family:Ubuntu;-inkscape-font-specification:'Ubuntu, Normal';text-align:start;letter-spacing:0px;word-spacing:0px;writing-mode:lr-tb;text-anchor:start;fill:#0072b6;fill-opacity:1;stroke:none;stroke-width:1px;stroke-linecap:butt;stroke-linejoin:miter;stroke-opacity:1">
      <path
         id="path4225"
         style="font-style:normal;font-variant:normal;font-weight:bold;font-stretch:normal;font-size:387.5px;font-family:Calibri;-inkscape-font-specification:'Calibri Bold';text-align:center;word-spacing:0px;text-anchor:middle;fill:#ffffff;fill-opacity:1"
         d="m 1083.4259,969.45416 q 0,2.0813 -1.1353,3.59497 -1.1352,1.32447 -4.1625,2.27051 -2.8382,0.94605 -7.7576,1.32446 -4.9195,0.56763 -12.677,0.56763 -8.136,0 -13.2446,-0.56763 -4.9195,-0.37841 -7.9468,-1.32446 -3.0274,-1.13525 -4.541,-2.83813 -1.5137,-1.89209 -2.2705,-4.54102 l -19.6778,-54.49219 q -4.1626,-11.92016 -8.7036,-19.86694 -4.54101,-8.13599 -10.02807,-13.05542 -5.48706,-5.10864 -12.4878,-7.18994 -7.00073,-2.0813 -15.70434,-2.0813 l -11.16333,0 0,98.01025 q 0,2.0813 -1.13525,3.59497 -1.13526,1.32447 -3.97339,2.45972 -2.83814,0.94605 -7.56836,1.32446 -4.73023,0.56763 -12.10938,0.56763 -7.18994,0 -12.10937,-0.56763 -4.73023,-0.37841 -7.56836,-1.32446 -2.83814,-1.13525 -4.1626,-2.45972 -1.13525,-1.51367 -1.13525,-3.59497 l 0,-231.40258 q 0,-2.0813 1.13525,-3.40577 1.32446,-1.51367 4.1626,-2.45971 2.83813,-0.94605 7.56836,-1.32447 4.91943,-0.56762 12.10937,-0.56762 7.37915,0 12.10938,0.56762 4.73022,0.37842 7.56836,1.32447 2.83813,0.94604 3.97339,2.45971 1.13525,1.32447 1.13525,3.40577 l 0,91.95556 11.16333,0 q 8.5144,0 14.94751,-2.27051 6.4331,-2.2705 11.54175,-7.18994 5.29785,-4.91943 9.46045,-12.677 4.3518,-7.94678 8.3252,-19.48852 l 16.4612,-48.81592 q 0.946,-2.64893 2.2705,-4.35181 1.3244,-1.89209 4.1626,-2.83813 3.0273,-1.13526 7.7575,-1.51368 4.9195,-0.56762 13.0555,-0.56762 7.3791,0 12.1093,0.56762 4.9195,0.37842 7.5684,1.32447 2.8381,0.75683 3.7842,2.27051 0.946,1.32446 0.946,3.40576 0,2.45971 -0.946,6.05468 -0.7569,3.59497 -2.8382,9.46045 l -16.4611,43.51807 q -4.5411,12.10937 -9.0821,20.62378 -4.541,8.5144 -9.6496,14.56909 -4.9195,5.86548 -10.5957,9.64966 -5.4871,3.78418 -12.2986,6.2439 l 0,0.1892 q 7.5683,3.21656 13.623,7.37916 6.2439,3.97338 11.5418,10.21728 5.487,6.2439 10.4065,15.32593 4.9194,9.08203 10.0281,22.32666 l 20.0561,50.70801 q 3.0273,7.75756 3.595,10.78491 0.5676,2.83813 0.5676,4.73022 z" />
      <path
         id="path4227"
         style="font-style:normal;font-variant:normal;font-weight:bold;font-stretch:normal;font-size:387.5px;font-family:Calibri;-inkscape-font-specification:'Calibri Bold';text-align:center;word-spacing:0px;text-anchor:middle;fill:#ffffff;fill-opacity:1"
         d="m 1320.694,957.534 q 2.2705,6.81152 2.8381,10.78491 0.5676,3.97339 -1.5137,6.05469 -2.0813,1.89209 -7.3791,2.2705 -5.2979,0.56763 -14.5691,0.56763 -9.6497,0 -15.1367,-0.37842 -5.2979,-0.18921 -8.136,-0.94604 -2.8381,-0.94605 -3.9734,-2.45972 -1.1353,-1.51367 -1.8921,-3.97339 l -16.4612,-49.19433 -91.9555,0 -15.5152,47.86987 q -0.7568,2.64893 -2.0813,4.54102 -1.1352,1.70288 -3.9734,2.83813 -2.6489,0.94605 -7.7575,1.32446 -4.9195,0.37842 -13.0555,0.37842 -8.7036,0 -13.623,-0.56763 -4.9194,-0.56762 -6.8115,-2.64892 -1.8921,-2.27051 -1.3245,-6.2439 0.5676,-3.97339 2.8381,-10.5957 l 75.4944,-217.21192 q 1.1353,-3.21655 2.649,-5.10864 1.5136,-2.0813 4.7302,-3.02734 3.4057,-1.13526 9.2712,-1.32446 5.8655,-0.37842 15.5152,-0.37842 11.1633,0 17.7856,0.37842 6.6223,0.1892 10.2173,1.32446 3.7842,0.94604 5.2978,3.02734 1.7029,2.0813 2.8382,5.67627 L 1320.694,957.534 Z m -112.3902,-179.55933 -0.1892,0 -34.6252,104.06494 69.4397,0 -34.6253,-104.06494 z" />
      <path
         id="path4229"
         style="font-style:normal;font-variant:normal;font-weight:bold;font-stretch:normal;font-size:387.5px;font-family:Calibri;-inkscape-font-specification:'Calibri Bold';text-align:center;word-spacing:0px;text-anchor:middle;fill:#ffffff;fill-opacity:1"
         d="m 1522.3907,805.59918 q 0,20.62378 -6.4331,36.51734 -6.4331,15.89355 -18.7316,26.86767 -12.2986,10.78491 -30.2735,16.46118 -17.7856,5.67627 -42.0044,5.67627 l -20.4346,0 0,78.14331 q 0,1.89209 -1.3244,3.40577 -1.1353,1.51367 -3.9734,2.45971 -2.8381,0.94605 -7.5684,1.51367 -4.7302,0.56763 -12.1093,0.56763 -7.19,0 -12.1094,-0.56763 -4.7302,-0.56762 -7.5684,-1.51367 -2.8381,-0.94604 -3.9734,-2.45971 -1.1352,-1.51368 -1.1352,-3.40577 l 0,-220.23925 q 0,-8.89283 4.541,-13.24463 4.7302,-4.54102 12.2986,-4.54102 l 57.7087,0 q 8.7036,0 16.4612,0.75684 7.9468,0.56762 18.9209,2.83813 10.9741,2.0813 22.1375,7.94678 11.3525,5.86548 19.2993,14.94751 7.9468,8.89282 12.1093,21.0022 4.1626,11.92016 4.1626,26.86767 z m -52.0324,3.59497 q 0,-12.86621 -4.541,-21.1914 -4.5411,-8.3252 -11.1634,-12.29859 -6.6223,-3.97339 -14.0014,-4.91943 -7.19,-1.13525 -14.9475,-1.13525 l -21.1915,0 0,83.06274 22.3267,0 q 11.9202,0 19.867,-3.21655 8.1359,-3.21656 13.2446,-8.89283 5.1086,-5.86547 7.7576,-13.81225 2.6489,-8.13599 2.6489,-17.59644 z" />
      <path
         id="path4231"
         style="font-style:normal;font-variant:normal;font-weight:bold;font-stretch:normal;font-size:387.5px;font-family:Calibri;-inkscape-font-specification:'Calibri Bold';text-align:center;word-spacing:0px;text-anchor:middle;fill:#ffffff;fill-opacity:1"
         d="m 1762.8754,1033.7852 q 0,1.8921 -0.9461,3.2166 -0.946,1.3244 -3.4057,2.0813 -2.4598,0.946 -6.6224,1.3244 -4.1626,0.5677 -10.7849,0.5677 -6.4331,0 -10.5957,-0.5677 -3.9734,-0.3784 -6.6223,-1.3244 -2.4597,-0.7569 -3.595,-2.0813 -0.946,-1.3245 -0.946,-3.2166 l 0,-57.70872 -162.9089,0 0,57.70872 q 0,1.8921 -1.1353,3.2166 -0.946,1.3244 -3.595,2.0813 -2.4597,0.946 -6.6223,1.3244 -4.1626,0.5677 -10.5957,0.5677 -6.4331,0 -10.5957,-0.5677 -4.1626,-0.3784 -6.8115,-1.3244 -2.4597,-0.7569 -3.4058,-2.0813 -0.946,-1.3245 -0.946,-3.2166 l 0,-87.98216 q -0.3784,-5.48706 1.8921,-7.75757 2.4597,-2.45972 7.1899,-2.45972 l 11.3526,0 q 4.541,-6.4331 8.5144,-13.24462 4.1626,-6.81153 7.9467,-16.08277 3.7842,-9.46045 7.3792,-22.32666 3.7842,-13.05542 7.3791,-31.78711 3.595,-18.73169 7.19,-44.2749 3.7842,-25.73242 7.7576,-60.35767 1.1352,-8.5144 4.3518,-12.29858 3.2165,-3.97339 9.8388,-3.97339 l 125.0672,0 q 6.6223,0 10.4065,3.97339 3.7841,3.78418 3.7841,11.73096 l 0,188.64135 20.813,0 q 5.1087,0 7.19,2.83814 2.0813,2.64892 2.0813,7.56836 l 0,87.79295 z m -79.657,-262.43284 -57.1411,0 q -3.4058,28.75976 -6.8116,50.708 -3.2165,21.75904 -6.6223,38.22022 -3.2165,16.46118 -6.6223,28.38135 -3.4057,11.92016 -7.0007,20.62378 -3.4058,8.70361 -7.19,14.94751 -3.7841,6.24389 -7.7575,11.35253 l 99.1455,0 0,-164.23339 z" />
      <path
         id="path4233"
         style="font-style:normal;font-variant:normal;font-weight:bold;font-stretch:normal;font-size:387.5px;font-family:Calibri;-inkscape-font-specification:'Calibri Bold';text-align:center;word-spacing:0px;text-anchor:middle;fill:#ffffff;fill-opacity:1"
         d="m 1997.4945,969.64337 q 0,1.89209 -1.3245,3.40576 -1.1352,1.32447 -3.9733,2.27051 -2.8382,0.94605 -7.7576,1.32446 -4.7302,0.56763 -11.9202,0.56763 -7.1899,0 -12.1094,-0.56763 -4.7302,-0.37841 -7.5683,-1.32446 -2.6489,-0.94604 -3.7842,-2.27051 -1.1352,-1.51367 -1.1352,-3.40576 l 0,-129.04053 q 0,-7.37915 0.1892,-14.37988 0.1892,-7.18994 0.5676,-12.677 l -0.3784,0 q -1.5137,2.64893 -3.595,6.2439 -2.0813,3.40576 -4.541,7.37915 -2.2705,3.78418 -4.9194,7.94677 -2.649,3.97339 -5.2979,7.75757 l -85.144,126.95923 q -1.5137,2.0813 -3.2166,3.59497 -1.5137,1.51367 -4.1626,2.45972 -2.4597,0.75683 -6.2439,0.94604 -3.595,0.37842 -9.4604,0.37842 -7.3792,0 -11.9202,-0.56763 -4.541,-0.37841 -7.1899,-1.32446 -2.4598,-0.94604 -3.4058,-2.45972 -0.9461,-1.51367 -0.9461,-3.59497 l 0,-231.59179 q 0,-1.89209 1.1353,-3.21656 1.3245,-1.51367 4.1626,-2.45971 3.0273,-0.94605 7.7576,-1.32447 4.7302,-0.56762 11.9201,-0.56762 7.3792,0 12.1094,0.56762 4.7302,0.37842 7.5684,1.32447 2.8381,0.94604 3.9734,2.45971 1.1352,1.32447 1.1352,3.21656 l 0,129.79736 q 0,6.05469 -0.1892,12.86621 -0.1892,6.81152 -0.5676,13.24463 l 0.3784,0 q 3.2165,-5.67627 8.136,-13.62305 4.9194,-7.94677 10.2173,-15.51513 l 85.144,-126.95923 q 1.3245,-1.89209 2.8381,-3.21655 1.5137,-1.51368 3.9734,-2.45972 2.649,-0.94605 6.4331,-1.32446 3.7842,-0.37842 9.6497,-0.37842 7.1899,0 11.5417,0.56762 4.5411,0.37842 7.19,1.32447 2.6489,0.94604 3.595,2.45971 1.1352,1.32447 1.1352,3.40577 l 0,231.781 z" />
      <path
         id="path4235"
         style="font-style:normal;font-variant:normal;font-weight:bold;font-stretch:normal;font-size:387.5px;font-family:Calibri;-inkscape-font-specification:'Calibri Bold';text-align:center;word-spacing:0px;text-anchor:middle;fill:#ffffff;fill-opacity:1"
         d="m 2271.2799,850.82013 q 0,30.46265 -7.5684,54.49219 -7.5683,24.02954 -22.5158,40.86914 -14.9475,16.65039 -37.085,25.54321 -21.9482,8.70361 -50.8972,8.70361 -28.5706,0 -49.9512,-7.37915 -21.1914,-7.56836 -35.3821,-22.89428 -14.1906,-15.32593 -21.3806,-38.97705 -7.0007,-23.65113 -7.0007,-56.00586 0,-29.70581 7.5684,-53.35694 7.5683,-23.84033 22.5158,-40.49072 14.9475,-16.65039 36.8958,-25.54321 22.1374,-8.89283 51.2756,-8.89283 27.8137,0 49.0051,7.37916 21.3807,7.37915 35.5713,22.70507 14.3799,15.32593 21.5699,38.78784 7.3791,23.27271 7.3791,55.05982 z m -52.2217,2.64893 q 0,-19.29932 -3.0273,-35.00367 -3.0274,-15.89355 -10.4065,-27.05688 -7.19,-11.35254 -19.2993,-17.40723 -12.1094,-6.24389 -30.2735,-6.24389 -18.3532,0 -30.6518,7.00073 -12.2986,6.81152 -19.867,18.35327 -7.5683,11.54175 -10.7849,27.05688 -3.0273,15.32593 -3.0273,32.54395 0,20.05615 3.0273,36.13892 3.0274,15.89355 10.2173,27.24609 7.19,11.35254 19.2993,17.40723 12.1094,5.86547 30.4627,5.86547 18.3532,0 30.6518,-6.81152 12.2986,-6.81152 19.867,-18.54248 7.5683,-11.73096 10.5957,-27.24609 3.2165,-15.70435 3.2165,-33.30078 z" />
    </g>
  </g>
</svg>
