<?xml version="1.0" encoding="UTF-8" standalone="no"?>
<svg
   xmlns:dc="http://purl.org/dc/elements/1.1/"
   xmlns:cc="http://creativecommons.org/ns#"
   xmlns:rdf="http://www.w3.org/1999/02/22-rdf-syntax-ns#"
   xmlns:svg="http://www.w3.org/2000/svg"
   xmlns="http://www.w3.org/2000/svg"
   version="1.1"
   id="svg3525"
   viewBox="0 0 2300 667.99999"
   height="668"
   width="2300">
  <defs
     id="defs3527">
    <clipPath
       id="clipPath3445"
       clipPathUnits="userSpaceOnUse">
      <path
         id="path3447"
         d="m 0,1000 2000,0 L 2000,0 0,0 0,1000 Z" />
    </clipPath>
  </defs>
  <metadata
     id="metadata3530">
    <rdf:RDF>
      <cc:Work
         rdf:about="">
        <dc:format>image/svg+xml</dc:format>
        <dc:type
           rdf:resource="http://purl.org/dc/dcmitype/StillImage" />
        <dc:title></dc:title>
      </cc:Work>
    </rdf:RDF>
  </metadata>
  <g
     transform="translate(0,-384.36227)"
     id="layer1">
    <g
       id="g3441"
       transform="matrix(0.8265539,0,0,-0.8265539,25.865384,1122.104)">
      <g
         clip-path="url(#clipPath3445)"
         id="g3443">
        <g
           transform="translate(131.0359,802.9832)"
           id="g3449">
          <path
             id="path3451"
             style="fill:#0072b6;fill-opacity:1;fill-rule:evenodd;stroke:none"
             d="m 0,0 c 113.001,98.917 247.989,80.524 367.714,-2.472 58.575,-51.826 77.861,-144.562 69.6,-267.845 -8.063,-120.326 -26.201,-264.304 -68.25,-434.06 -32.784,42.479 -81.063,93.096 -211.927,200.767 -90.899,74.789 -186.666,128.326 -215.132,211.316 C -97.983,-175.714 -76.529,-66.991 0,0" />
        </g>
        <g
           transform="translate(498.7503,800.5115)"
           id="g3453">
          <path
             id="path3455"
             style="fill:#e62324;fill-opacity:1;fill-rule:evenodd;stroke:none"
             d="M 0,0 C 58.644,44.447 120.669,64.387 185.494,64.02 277.935,56.629 340.446,20.118 375.71,-42.905 445.132,-179.532 403.432,-315.233 286.467,-426.69 189.336,-519.247 82.858,-598.327 1.349,-701.905 31.458,-567.33 56.425,-433.296 67.179,-300.766 72.426,-179.365 71.665,-62.561 0,0" />
        </g>
        <g
           transform="translate(12.2074,423.7703)"
           id="g3457">
          <path
             id="path3459"
             style="fill:#ffffff;fill-opacity:1;fill-rule:evenodd;stroke:none"
             d="m 0,0 320.049,3.479 c 16.645,12.294 43.819,66.53 61.162,44.357 L 416.583,2.611 c 13.93,-17.809 6.539,250.985 60.533,302.333 26.575,25.272 41.784,-226.849 54.833,-452.537 15.177,58.088 23.253,183.809 57.706,169.045 l 12.176,-5.218 16.17,73.411 c 3.492,15.852 26.221,12.688 28.121,4.056 15.651,-37.108 18.553,-76.533 27.83,-114.8 14.226,19.016 39.152,69.085 56.877,53.28 L 763.015,3.479 C 822.177,-0.798 877.749,0 933.889,0.291 c 8.887,0.047 8.309,-23.483 -0.58,-23.483 l -181.89,0 -27.83,28.99 c -12.905,-26.6 -26.49,-52.296 -46.384,-69.576 -23.991,4.581 -34.659,44.63 -40.878,101.752 -7.247,-19.616 -11.988,-61.577 -21.74,-58.847 -9.664,2.706 -19.328,5.412 -28.99,8.117 -15.396,-89.621 -37.771,-217.378 -55.661,-197.131 -69.183,78.299 -33.242,287.58 -49.863,431.37 C 460.746,132.58 458.805,-40.929 422.093,-45.224 405.085,-52.94 385.759,-2.705 367.592,18.553 355.996,5.025 350.622,-21.932 332.804,-22.032 L 0.186,-23.921 C -3.957,-19.873 -8.036,-10.44 0,0" />
        </g>
        <g
           transform="translate(12.8504,423.7544)"
           id="g3461">
          <path
             id="path3463"
             style="fill:#0072b6;fill-opacity:1;fill-rule:evenodd;stroke:none"
             d="m 0,0 118.87,1.292 26.999,-24.386 C 97.308,-23.37 48.747,-23.645 0.186,-23.921 -6.44,-16.652 -7.377,-8.772 0,0" />
        </g>
        <g
           transform="translate(831.8276,424.4991)"
           id="g3465">
          <path
             id="path3467"
             style="fill:#e62324;fill-opacity:1;fill-rule:evenodd;stroke:none"
             d="m 0,0 116.994,-0.933 c 6.658,-7.311 6.234,-14.727 -0.062,-22.231 L -20.423,-23.937 0,0 Z" />
        </g>
      </g>
    </g>
    <text
       id="text3567"
       y="693.79083"
       x="1608.9661"
       style="font-style:normal;font-variant:normal;font-weight:normal;font-stretch:normal;font-size:40px;line-height:93.99999976%;font-family:Ubuntu;-inkscape-font-specification:'Ubuntu, Normal';text-align:start;letter-spacing:0px;word-spacing:0px;writing-mode:lr-tb;text-anchor:start;fill:#e62324;fill-opacity:1;stroke:none;stroke-width:1px;stroke-linecap:butt;stroke-linejoin:miter;stroke-opacity:1"
       xml:space="preserve"><tspan
         style="font-style:normal;font-variant:normal;font-weight:600;font-stretch:normal;font-size:325px;line-height:93.99999976%;font-family:'Open Sans';-inkscape-font-specification:'Open Sans Semi-Bold';text-align:center;writing-mode:lr-tb;text-anchor:middle;fill:#0072b6;fill-opacity:1"
         y="693.79083"
         x="1608.9661"
         id="tspan3569">ОШ</tspan><tspan
         style="font-style:normal;font-variant:normal;font-weight:600;font-stretch:normal;font-size:287.5px;line-height:93.99999976%;font-family:'Open Sans';-inkscape-font-specification:'Open Sans Semi-Bold';text-align:center;writing-mode:lr-tb;text-anchor:middle;fill:#e62324;fill-opacity:1"
         id="tspan3571"
         y="999.29083"
         x="1608.9661" /></text>
    <text
       id="text3579"
       y="976.07648"
       x="1606.8563"
       style="font-style:normal;font-variant:normal;font-weight:normal;font-stretch:normal;font-size:275px;line-height:125%;font-family:Ubuntu;-inkscape-font-specification:'Ubuntu, Normal';text-align:start;letter-spacing:0px;word-spacing:0px;writing-mode:lr-tb;text-anchor:start;fill:#ffffff;fill-opacity:1;stroke:none;stroke-width:1px;stroke-linecap:butt;stroke-linejoin:miter;stroke-opacity:1"
       xml:space="preserve"><tspan
         style="font-style:normal;font-variant:normal;font-weight:600;font-stretch:normal;font-size:325px;font-family:'Open Sans';-inkscape-font-specification:'Open Sans Semi-Bold';text-align:center;word-spacing:0px;text-anchor:middle"
         y="976.07648"
         x="1606.8563"
         id="tspan3581">КАРДИО</tspan></text>
  </g>
</svg>
